<?xml version="1.0" encoding="UTF-8" standalone="no"?>
<!DOCTYPE svg PUBLIC "-//W3C//DTD SVG 1.1//EN" "http://www.w3.org/Graphics/SVG/1.1/DTD/svg11.dtd">
<svg width="100%" height="100%" viewBox="0 0 625 625" version="1.1" xmlns="http://www.w3.org/2000/svg" xmlns:xlink="http://www.w3.org/1999/xlink" xml:space="preserve" xmlns:serif="http://www.serif.com/" style="fill-rule:evenodd;clip-rule:evenodd;stroke-linejoin:round;stroke-miterlimit:2;">
    <g transform="matrix(1,0,0,1,-2622,-106)">
        <g id="Favicon" transform="matrix(0.935629,0,0,1.16189,168.781,-17.1604)">
            <rect x="2622" y="106" width="668" height="537.917" style="fill:none;"/>
            <g transform="matrix(1.09072,0,0,1.09072,-293.241,-9.81023)">
                <g transform="matrix(4.45333,0,0,3.58611,2319.68,-1042.61)">
                    <path d="M211.527,373.036C208.413,382.591 198.664,393.614 184.538,403.711C179.818,407.087 174.615,410.357 169,413.435C164.922,415.671 160.63,417.808 156.155,419.808C134.402,429.527 113.139,433.896 97.729,432.806C113.986,436.944 136.901,434.185 159.717,423.992C163.812,422.162 167.724,420.164 171.442,418.044L176.905,428.351L197.156,428.351L186.631,407.803C200.245,396.969 209.239,384.474 211.527,373.036Z" style="fill:rgb(0,74,143);fill-rule:nonzero;"/>
                </g>
                <g transform="matrix(4.45333,0,0,3.58611,2319.68,-1163.73)">
                    <path d="M207.488,399.642C203.633,391.019 186.666,389.645 165.159,394.878L166.013,396.544C184.721,391.817 199.047,392.363 202.018,399.014C205.01,405.708 195.72,416.844 179.523,427.697L153.725,377.33L98.082,454.959C93.188,454.287 89.819,452.564 88.546,449.716C84.719,441.152 100.99,425.314 126.12,412.104L128.659,408.564C99.337,423.363 80.345,442.974 85.368,454.209C90.826,466.424 122.589,464.114 156.31,449.044C190.033,433.98 212.946,411.859 207.488,399.642M153.197,442.079C142.77,446.739 132.613,450.22 123.532,452.437L150.116,411.579L163.617,437.051C160.284,438.783 156.807,440.467 153.197,442.079Z" style="fill:rgb(243,111,33);fill-rule:nonzero;"/>
                </g>
            </g>
        </g>
    </g>
</svg>
